<svg width="264" height="280" xmlns="http://www.w3.org/2000/svg"><g fill="none" fill-rule="evenodd"><g transform="translate(12 40)"><mask id="a" fill="#fff"><circle cx="120" cy="120" r="120"/></mask><circle cx="120" cy="120" r="120" fill="#E6E6E6"/><g mask="url(#a)" fill="#119FB6"><path d="M0 0h240v240H0z"/></g></g><mask id="b" fill="#fff"><path d="M12 160c0 66.274 53.726 120 120 120s120-53.726 120-120h12V0H0v160h12z"/></mask><g mask="url(#b)"><g transform="translate(32 39)"><mask id="c" fill="#fff"><path d="M134 136.611V163c33.765 0 66 32.235 66 72v9H0v-9c0-39.765 32.235-72 66-72v-26.389c-7.237-.189-19.628-16.924-21.695-36.73C38.48 99.058 34 94.052 34 88V74c0-5.946 4.325-10.882 10-11.834V56c0-30.928 25.072-56 56-56s56 25.072 56 56v6.166c5.675.952 10 5.888 10 11.834v14c0 6.052-4.48 11.058-10.305 11.881-2.067 19.806-14.458 36.541-21.695 36.73z"/></mask><path d="M134 136.611V163c33.765 0 66 32.235 66 72v9H0v-9c0-39.765 32.235-72 66-72v-26.389c-7.237-.189-19.628-16.924-21.695-36.73C38.48 99.058 34 94.052 34 88V74c0-5.946 4.325-10.882 10-11.834V56c0-30.928 25.072-56 56-56s56 25.072 56 56v6.166c5.675.952 10 5.888 10 11.834v14c0 6.052-4.48 11.058-10.305 11.881-2.067 19.806-14.458 36.541-21.695 36.73z" fill="#D0C6AC"/><g mask="url(#c)" fill="#FFDBB4"><path d="M-32 0h264v244H-32z"/></g><path d="M156 79v23c0 30.928-25.072 56-56 56s-56-25.072-56-56V79v15c0 30.928 25.072 56 56 56s56-25.072 56-56V79z" fill-opacity=".1" fill="#000" mask="url(#c)"/></g><g transform="translate(0 170)"><mask id="d" fill="#fff"><path d="M170.079 30.236C214.777 30.315 232 68.792 232 101.052V110H32v-8.948c0-32.655 17.97-70.832 62.488-70.816-.352 1.418 0 4.635 0 6.112 0 16.281 35.408 16.565 38.01 16.565 2.802 0 37.58-2.616 37.58-18.897 0-1.363.301-2.466 0-3.78z"/></mask><path d="M170.079 29.236C214.777 29.315 232 67.792 232 100.052V109H32v-8.948c0-32.655 17.971-70.832 62.488-70.816-.352 1.418 0 4.635 0 6.112 0 16.281 35.408 16.565 38.011 16.565 2.801 0 37.58-2.616 37.58-18.897 0-1.363.3-2.466 0-3.78z" fill="#E6E6E6"/><g mask="url(#d)" fill="red"><path d="M0 0h264v110H0z"/></g></g><g fill="#000"><g transform="translate(78 137)"><mask id="e" fill="#fff"><path d="M35.118 15.128C36.176 24.62 44.226 32 54 32c9.804 0 17.874-7.426 18.892-16.96.082-.767-.775-2.04-1.85-2.04H37.088c-1.08 0-2.075 1.178-1.97 2.128z"/></mask><path d="M35.118 15.128C36.176 24.62 44.226 32 54 32c9.804 0 17.874-7.426 18.892-16.96.082-.767-.775-2.04-1.85-2.04H37.088c-1.08 0-2.075 1.178-1.97 2.128z" fill-opacity=".7"/><rect fill="#FFF" mask="url(#e)" x="39" y="2" width="31" height="16" rx="5"/><g mask="url(#e)" fill="#FF4F6D"><g transform="translate(38 24)"><circle cx="11" cy="11" r="11"/><circle cx="21" cy="11" r="11"/></g></g></g><path d="M120 135c0 4.418 5.373 8 12 8s12-3.582 12-8" fill-opacity=".16"/><path d="M103.241 110.346a6 6 0 1010.699 2.8 1.998 1.998 0 00-.125-.739 7.509 7.509 0 00-.144-.372 6.007 6.007 0 00-1.646-2.484c-2.126-2.234-5.519-3.551-9.027-3.551-4.834 0-8.991 2.649-10.838 6.447-.54 1.111.387 1.853 1.278 1.125 2.436-1.993 5.82-3.228 9.56-3.228.08 0 .162 0 .243.002zm58 0a6 6 0 1010.699 2.8 1.998 1.998 0 00-.125-.739 7.509 7.509 0 00-.144-.372 6.007 6.007 0 00-1.646-2.484c-2.126-2.234-5.519-3.551-9.027-3.551-4.834 0-8.991 2.649-10.838 6.447-.54 1.111.387 1.853 1.278 1.125 2.436-1.993 5.82-3.228 9.56-3.228.08 0 .162 0 .243.002zm-58.694-23.198c-5.807.269-15.195 4.488-14.953 10.344.008.192.29.276.427.129 2.755-2.96 22.316-5.95 29.205-4.365.63.145 1.11-.477.71-.927-3.422-3.848-10.186-5.426-15.389-5.18m59.906-.001c5.807.269 15.195 4.488 14.953 10.344-.008.192-.29.276-.427.129-2.755-2.96-22.316-5.95-29.205-4.365-.63.145-1.11-.477-.71-.927 3.422-3.848 10.186-5.426 15.389-5.18" fill-opacity=".6"/></g><mask id="f" fill="#fff"><path d="M0 0h264v280H0z"/></mask><g mask="url(#f)"><g transform="translate(61 85)"><defs><filter x="-.8%" y="-2.4%" width="101.5%" height="109.8%" filterUnits="objectBoundingBox" id="g"><feOffset dy="2" in="SourceAlpha" result="shadowOffsetOuter1"/><feColorMatrix values="0 0 0 0 0 0 0 0 0 0 0 0 0 0 0 0 0 0 0.2 0" in="shadowOffsetOuter1" result="shadowMatrixOuter1"/><feMerge><feMergeNode in="shadowMatrixOuter1"/><feMergeNode in="SourceGraphic"/></feMerge></filter></defs><g filter="url(#g)" transform="translate(6 10)" fill="#4a4a58"><path d="M34 34.093h-2.758C17.315 34.093 9 27.72 9 17.047 9 8.42 10.817 0 32.53 0h2.94C57.183 0 59 8.421 59 17.047c0 10.035-10.279 17.046-25 17.046zM32.385 4.99C13 4.99 13 10.678 13 17.88c0 5.88 3.116 12.888 17.97 12.888H34c12.365 0 21-5.3 21-12.888 0-7.201 0-12.89-19.385-12.89zM96 34.093h-2.758C79.315 34.093 71 27.72 71 17.047 71 8.42 72.817 0 94.53 0h2.94C119.183 0 121 8.421 121 17.047c0 10.035-10.279 17.046-25 17.046zM94.385 4.99C75 4.99 75 10.678 75 17.88c0 5.88 3.12 12.888 17.97 12.888H96c12.365 0 21-5.3 21-12.888 0-7.201 0-12.89-19.385-12.89z"/><path d="M2.955 5.772C3.645 5.096 11.21 0 32.5 0c17.851 0 21.63 1.853 27.35 4.652l.419.207c.398.14 2.431.83 4.81.907a16.998 16.998 0 004.563-.869C76.17 1.722 82.562 0 97.5 0c21.29 0 28.854 5.096 29.545 5.772 1.634 0 2.955 1.29 2.955 2.885v2.886c0 1.596-1.32 2.886-2.955 2.886 0 0-6.901 0-6.901 2.886 0 2.885-1.962-4.176-1.962-5.772v-2.81c-3.603-1.38-10.054-3.947-20.682-3.947-11.842 0-17.739 2.1-22.798 4.185l.057.137-.003 1.986-2.217 5.35L69.8 15.36c-.244-.097-.772-.27-1.504-.451-2.04-.503-4.137-.656-5.992-.276-.68.14-1.312.35-1.891.633l-2.643 1.29-2.643-5.16.117-2.295.08-.195c-4.362-2.033-8.385-4.12-22.824-4.12-10.628 0-17.078 2.565-20.682 3.944v2.812c0 1.596-2.954 8.657-2.954 5.772 0-2.886-5.91-2.886-5.91-2.886-1.63 0-2.954-1.29-2.954-2.886V8.657c0-1.595 1.324-2.885 2.955-2.885z"/></g></g></g></g></g></svg>