<svg xmlns="http://www.w3.org/2000/svg" width="15" height="15" viewBox="0 0 11.25 11.25"><path d="M5.624 11.25a5.627 5.627 0 005.626-5.625A5.627 5.627 0 005.624 0 5.626 5.626 0 000 5.625a5.626 5.626 0 005.624 5.625" fill="#f4ba49"/><path d="M11.927 5.125L8.614 12.73a.67.67 0 01-.602.378c-.262 0-.494-.129-.597-.378L4.089 5.125a.566.566 0 01-.056-.263c0-.343.275-.666.64-.666a.65.65 0 01.602.379L8 11.003l2.759-6.428a.627.627 0 01.584-.379c.366 0 .636.297.636.65 0 .09-.008.18-.051.279" fill="#fff" stroke="#fff" stroke-width="1.1" transform="scale(.70295 .70313)"/></svg>