<svg width="240" height="240" xmlns="http://www.w3.org/2000/svg" xmlns:xlink="http://www.w3.org/1999/xlink"><defs><circle id="a" cx="120" cy="120" r="120"/><path d="M124 144.611V163h4c39.765 0 72 32.235 72 72v9H0v-9c0-39.765 32.235-72 72-72h4v-18.389c-17.237-8.189-29.628-24.924-31.695-44.73C38.48 99.058 34 94.052 34 88V74c0-5.946 4.325-10.882 10-11.834V56c0-30.928 25.072-56 56-56s56 25.072 56 56v6.166c5.675.952 10 5.888 10 11.834v14c0 6.052-4.48 11.058-10.305 11.881-2.067 19.806-14.458 36.541-31.695 44.73z" id="d"/></defs><g fill="none" fill-rule="evenodd"><mask id="b" fill="#fff"><use xlink:href="#a"/></mask><use fill="#E6E6E6" xlink:href="#a"/><g mask="url(#b)" fill="#F4BA49"><path d="M0 0h240v240H0z"/></g><mask id="c" fill="#fff"><use xlink:href="#a"/></mask><g mask="url(#c)"><g transform="translate(20 36)"><mask id="e" fill="#fff"><use xlink:href="#d"/></mask><use fill="#D0C6AC" xlink:href="#d"/><g mask="url(#e)" fill="#EDB98A"><path d="M-32 0h264v244H-32z"/></g><path d="M156 79v23c0 30.928-25.072 56-56 56s-56-25.072-56-56V79v15c0 30.928 25.072 56 56 56s56-25.072 56-56V79z" fill-opacity=".1" fill="#000" mask="url(#e)"/></g><g transform="translate(-12 170)"><defs><path d="M94 29.688V74h76V29.688a71.525 71.525 0 0126 8.944V110H68V38.632a71.525 71.525 0 0126-8.944z" id="f"/></defs><mask id="g" fill="#fff"><use xlink:href="#f"/></mask><use fill="#12A9C1" xlink:href="#f"/><g mask="url(#g)" fill="#rgb(18, 169, 193)"><path d="M0 0h264v110H0z"/></g><circle fill="#F4F4F4" cx="81" cy="83" r="5"/><circle fill="#F4F4F4" cx="183" cy="83" r="5"/></g><g fill="#000"><path d="M106 152c0 5.372 6.158 9 14 9s14-3.628 14-9c0-1.105-.95-2-2-2-1.293 0-1.87.905-2 2-1.242 2.938-4.317 4.716-10 5-5.683-.284-8.758-2.062-10-5-.13-1.095-.707-2-2-2-1.05 0-2 .895-2 2z" fill-opacity=".6" fill-rule="nonzero"/><path d="M108 132c0 4.418 5.373 8 12 8s12-3.582 12-8" fill-opacity=".16"/><path d="M80.16 114.447C82.007 110.65 86.164 108 90.998 108c4.816 0 8.961 2.63 10.817 6.407.552 1.122-.233 2.04-1.024 1.36-2.451-2.107-5.932-3.423-9.793-3.423-3.74 0-7.124 1.235-9.56 3.228-.891.728-1.818-.014-1.278-1.125zm58 0c1.847-3.798 6.004-6.447 10.838-6.447 4.816 0 8.961 2.63 10.817 6.407.552 1.122-.233 2.04-1.024 1.36-2.451-2.107-5.932-3.423-9.793-3.423-3.74 0-7.124 1.235-9.56 3.228-.891.728-1.818-.014-1.278-1.125z" fill-opacity=".6"/><path d="M79.63 101.159c3.915-5.51 14.648-8.598 23.893-6.328a2 2 0 00.954-3.884c-10.737-2.637-23.165.94-28.107 7.894a2 2 0 003.26 2.318zm80.74 0c-3.915-5.51-14.648-8.598-23.893-6.328a2 2 0 01-.954-3.884c10.737-2.637 23.165.94 28.108 7.894a2 2 0 01-3.26 2.318z" fill-rule="nonzero" fill-opacity=".6"/></g><defs><path id="h" d="M0 0h264v280H0z"/><path d="M148.86 69c.093 1.321.14 2.655.14 4v38c0 22.34-13.08 41.623-32 50.611v8.706c18.146 1.499 35.721 4.018 46 6.683 9.953-13.56 22.885-26.2 23-51 .085-18.985-27.676-95.572-40-111-8.138-10.188-28.695-13.55-53-14C68.695.55 48.923 6.509 41 16 30.319 28.795-.085 107.015 0 126c.116 24.8 13.048 37.44 23 51 10.279-2.665 27.854-5.184 46-6.683v-8.706C50.08 152.623 37 133.339 37 111V73c0-1.345.047-2.679.14-4h28.234l3.879-21.444L72.058 69h76.801z" id="j"/></defs><mask id="i" fill="#fff"><use xlink:href="#h"/></mask><g mask="url(#i)"><g transform="translate(27 19)"><mask id="k" fill="#fff"><use xlink:href="#j"/></mask><use fill="#E6E6E6" xlink:href="#j"/><g mask="url(#k)" fill="#960"><path d="M0 0h264v280H0z"/></g></g><g transform="translate(49 85)"><defs><filter x="-.8%" y="-2.4%" width="101.5%" height="109.8%" filterUnits="objectBoundingBox" id="l"><feOffset dy="2" in="SourceAlpha" result="shadowOffsetOuter1"/><feColorMatrix values="0 0 0 0 0 0 0 0 0 0 0 0 0 0 0 0 0 0 0.2 0" in="shadowOffsetOuter1" result="shadowMatrixOuter1"/><feMerge><feMergeNode in="shadowMatrixOuter1"/><feMergeNode in="SourceGraphic"/></feMerge></filter></defs><g filter="url(#l)" transform="translate(6 7)" fill="#FFC0AD" fill-rule="nonzero"><path d="M34 41h-2.758C17.315 41 9 33.336 9 20.5 9 10.127 10.817 0 32.53 0h2.94C57.183 0 59 10.127 59 20.5 59 32.569 48.721 41 34 41zM32.385 6C13 6 13 12.841 13 21.502 13 28.572 16.116 37 30.97 37H34c12.365 0 21-6.373 21-15.498C55 12.84 55 6 35.615 6h-3.23zM96 41h-2.758C79.315 41 71 33.336 71 20.5 71 10.127 72.817 0 94.53 0h2.94C119.183 0 121 10.127 121 20.5 121 32.569 110.721 41 96 41zM94.385 6C75 6 75 12.841 75 21.502 75 28.572 78.12 37 92.97 37H96c12.365 0 21-6.373 21-15.498C117 12.84 117 6 97.615 6h-3.23z"/><path d="M2.955 5.772C3.645 5.096 11.21 0 32.5 0c17.851 0 21.63 1.853 27.35 4.652l.419.207c.398.14 2.431.83 4.81.907a16.998 16.998 0 004.563-.869C76.17 1.722 82.562 0 97.5 0c21.29 0 28.854 5.096 29.545 5.772 1.634 0 2.955 1.29 2.955 2.885v2.886c0 1.596-1.32 2.886-2.955 2.886 0 0-6.901 0-6.901 2.886 0 2.885-1.962-4.176-1.962-5.772v-2.81c-3.603-1.38-10.054-3.947-20.682-3.947-11.842 0-17.739 2.1-22.798 4.185l.057.137-.003 1.986-2.217 5.35L69.8 15.36c-.244-.097-.772-.27-1.504-.451-2.04-.503-4.137-.656-5.992-.276-.68.14-1.312.35-1.891.633l-2.643 1.29-2.643-5.16.117-2.295.08-.195c-4.362-2.033-8.385-4.12-22.824-4.12-10.628 0-17.078 2.565-20.682 3.944v2.812c0 1.596-2.954 8.657-2.954 5.772 0-2.886-5.91-2.886-5.91-2.886-1.63 0-2.954-1.29-2.954-2.886V8.657c0-1.595 1.324-2.885 2.955-2.885z"/></g></g></g></g></g></svg>