<svg xmlns="http://www.w3.org/2000/svg" xmlns:xlink="http://www.w3.org/1999/xlink" width="240px" height="240px" viewBox="0 0 240 240" version="1.1">
    <defs>
        <circle id="path-1" cx="120" cy="120" r="120" />
        <path d="M12,160 C12,226.27417 65.72583,280 132,280 C198.27417,280 252,226.27417 252,160 L264,160 L264,-1.42108547e-14 L-3.19744231e-14,-1.42108547e-14 L-3.19744231e-14,160 L12,160 Z" id="path-3" />
        <path d="M124,144.610951 L124,163 L128,163 L128,163 C167.764502,163 200,195.235498 200,235 L200,244 L0,244 L0,235 C-4.86974701e-15,195.235498 32.235498,163 72,163 L72,163 L76,163 L76,144.610951 C58.7626345,136.422372 46.3722246,119.687011 44.3051388,99.8812385 C38.4803105,99.0577866 34,94.0521096 34,88 L34,74 C34,68.0540074 38.3245733,63.1180731 44,62.1659169 L44,56 L44,56 C44,25.072054 69.072054,5.68137151e-15 100,0 L100,0 L100,0 C130.927946,-5.68137151e-15 156,25.072054 156,56 L156,62.1659169 C161.675427,63.1180731 166,68.0540074 166,74 L166,88 C166,94.0521096 161.51969,99.0577866 155.694861,99.8812385 C153.627775,119.687011 141.237365,136.422372 124,144.610951 Z" id="path-5" />
    </defs>
    <g id="Avataaar" stroke="none" stroke-width="1" fill="none" fill-rule="evenodd">
        <g id="Circle" stroke-width="1" fill-rule="evenodd" transform="translate(0.000000, 0.000000)">
            <mask id="mask-2" fill="white">
                <use xlink:href="#path-1" />
            </mask>
            <use id="Circle-Background" fill="#E6E6E6" xlink:href="#path-1" />
            <g id="Color/Palette/Blue-01" mask="url(#mask-2)" fill="#12a8c1">
                <rect id="&#x1f58d;Color" x="0" y="0" width="240" height="240" />
            </g>
        </g>
        <mask id="mask-4" fill="white">
            <use xlink:href="#path-1" />
        </mask>
        <g id="Avataaar" stroke-width="1" fill-rule="evenodd" mask="url(#mask-4)">
            <g id="Body" transform="translate(20.000000, 12.000000)">
                <mask id="mask-6" fill="white">
                    <use xlink:href="#path-5" />
                </mask>
                <use fill="#D0C6AC" xlink:href="#path-5" />
                <g id="Skin/&#x1f476;&#x1f3fd;-03-Brown" mask="url(#mask-6)" fill="#EDB98A">
                    <g transform="translate(-32.000000, 0.000000)" id="Color">
                        <rect x="0" y="0" width="264" height="244" />
                    </g>
                </g>
                <path d="M156,79 L156,102 C156,132.927946 130.927946,158 100,158 C69.072054,158 44,132.927946 44,102 L44,79 L44,94 C44,124.927946 69.072054,150 100,150 C130.927946,150 156,124.927946 156,94 L156,79 Z" id="Neck-Shadow" fill-opacity="0.100000001" fill="#000000" mask="url(#mask-6)" />
            </g>
            <g id="Clothing/Shirt-Crew-Neck" transform="translate(-12.000000, 146.000000)">
                <defs>
                    <path d="M165.960472,29.2949161 C202.936473,32.3249982 232,63.2942856 232,101.051724 L232,110 L32,110 L32,101.051724 C32,62.9525631 61.591985,31.7649812 99.0454063,29.2195264 C99.0152598,29.5931145 99,29.9692272 99,30.3476251 C99,42.2107177 113.998461,51.8276544 132.5,51.8276544 C151.001539,51.8276544 166,42.2107177 166,30.3476251 C166,29.9946691 165.986723,29.6437014 165.960472,29.2949161 Z" id="react-path-25" />
                </defs>
                <mask id="react-mask-26" fill="white">
                    <use xlink:href="#react-path-25" />
                </mask>
                <use id="Clothes" fill="#E6E6E6" fill-rule="evenodd" xlink:href="#react-path-25" />
                <g id="Color/Palette/Gray-01" mask="url(#react-mask-26)" fill-rule="evenodd" fill="#262E33">
                    <rect id="&#x1f58d;Color" x="0" y="0" width="264" height="110" />
                </g>
                <g id="Shadowy" opacity="0.599999964" stroke-width="1" fill-rule="evenodd" mask="url(#react-mask-26)" fill-opacity="0.16" fill="#000000">
                    <g transform="translate(92.000000, 4.000000)" id="Hola-&#x1f44b;&#x1f3fc;">
                        <ellipse cx="40.5" cy="27.8476251" rx="39.6351047" ry="26.9138272" />
                    </g>
                </g>
            </g>
            <g id="Face" transform="translate(64.000000, 52.000000)" fill="#000000">
                <g id="Mouth/Smile" transform="translate(2.000000, 52.000000) ">
                    <defs>
                        <path d="M35.117844,15.1280772 C36.1757121,24.6198025 44.2259873,32 54,32 C63.8042055,32 71.8740075,24.574136 72.8917593,15.0400546 C72.9736685,14.272746 72.1167429,13 71.042767,13 C56.1487536,13 44.7379213,13 37.0868244,13 C36.0066168,13 35.0120058,14.1784435 35.117844,15.1280772 Z" id="react-path-27" />
                    </defs>
                    <mask id="react-mask-28" fill="white">
                        <use xlink:href="#react-path-27" />
                    </mask>
                    <use id="Mouth" fill-opacity="0.699999988" fill="#000000" fill-rule="evenodd" xlink:href="#react-path-27" />
                    <rect id="Teeth" fill="#FFFFFF" fill-rule="evenodd" mask="url(#react-mask-28)" x="39" y="2" width="31" height="16" rx="5" />
                    <g id="Tongue" stroke-width="1" fill-rule="evenodd" mask="url(#react-mask-28)" fill="#FF4F6D">
                        <g transform="translate(38.000000, 24.000000)">
                            <circle cx="11" cy="11" r="11" />
                            <circle cx="21" cy="11" r="11" />
                        </g>
                    </g>
                </g>
                <g id="Nose/Default" transform="translate(28.000000, 40.000000)" fill-opacity="0.16">
                    <path d="M16,8 C16,12.418278 21.372583,16 28,16 L28,16 C34.627417,16 40,12.418278 40,8" id="Nose" />
                </g>
                <g id="Eyes/Side-&#x1f612;" transform="translate(0.000000, 8.000000)" fill-opacity="0.599999964">
                    <path d="M27.2409577,20.3455337 C26.462715,21.3574913 26,22.6247092 26,24 C26,27.3137085 28.6862915,30 32,30 C35.3137085,30 38,27.3137085 38,24 C38,23.7097898 37.9793961,23.4243919 37.9395713,23.1451894 C37.9474218,22.9227843 37.9097825,22.6709538 37.8153518,22.4071242 C37.7703692,22.2814477 37.7221152,22.1572512 37.6706873,22.0345685 C37.3370199,21.0717264 36.7650456,20.2202109 36.0253277,19.550585 C33.898886,17.3173253 30.5064735,16 26.9975803,16 C22.1644225,16 18.006676,18.648508 16.1601674,22.4473116 C15.6201012,23.5583844 16.5467928,24.3002944 17.4375392,23.5716412 C19.8737584,21.5787519 23.2572061,20.3437884 26.9975803,20.3437884 C27.0788767,20.3437884 27.1600045,20.3443718 27.2409577,20.3455337 Z" id="Eye" />
                    <path d="M85.2409577,20.3455337 C84.462715,21.3574913 84,22.6247092 84,24 C84,27.3137085 86.6862915,30 90,30 C93.3137085,30 96,27.3137085 96,24 C96,23.7097898 95.9793961,23.4243919 95.9395713,23.1451894 C95.9474218,22.9227843 95.9097825,22.6709538 95.8153518,22.4071242 C95.7703692,22.2814477 95.7221152,22.1572512 95.6706873,22.0345685 C95.3370199,21.0717264 94.7650456,20.2202109 94.0253277,19.550585 C91.898886,17.3173253 88.5064735,16 84.9975803,16 C80.1644225,16 76.006676,18.648508 74.1601674,22.4473116 C73.6201012,23.5583844 74.5467928,24.3002944 75.4375392,23.5716412 C77.8737584,21.5787519 81.2572061,20.3437884 84.9975803,20.3437884 C85.0788767,20.3437884 85.1600045,20.3443718 85.2409577,20.3455337 Z" id="Eye" />
                </g>
                <g id="Eyebrow/Natural/Default-Natural" fill-opacity="0.599999964">
                    <path d="M26.0390934,6.21012364 C20.2775554,6.98346216 11.2929313,12.0052479 12.04426,17.8178111 C12.0689481,18.0080543 12.3567302,18.0673468 12.4809077,17.9084937 C14.9674041,14.7203351 34.1927973,10.0365481 41.1942673,11.0147151 C41.8350523,11.1044465 42.2580662,10.4430343 41.8210501,10.0302067 C38.0765663,6.49485426 31.2003792,5.51224825 26.0390934,6.21012364" id="Eyebrow" transform="translate(27.000000, 12.000000) rotate(5.000000) translate(-27.000000, -12.000000) " />
                    <path d="M85.0390934,6.21012364 C79.2775554,6.98346216 70.2929313,12.0052479 71.04426,17.8178111 C71.0689481,18.0080543 71.3567302,18.0673468 71.4809077,17.9084937 C73.9674041,14.7203351 93.1927973,10.0365481 100.194267,11.0147151 C100.835052,11.1044465 101.258066,10.4430343 100.82105,10.0302067 C97.0765663,6.49485426 90.2003792,5.51224825 85.0390934,6.21012364" id="Eyebrow" transform="translate(86.000000, 12.000000) scale(-1, 1) rotate(5.000000) translate(-86.000000, -12.000000) " />
                </g>
            </g>
            <g id="Top" stroke-width="1" fill-rule="evenodd">
                <defs>
                    <rect id="react-path-9" x="0" y="0" width="264" height="280" />
                    <filter x="-0.8%" y="-2.0%" width="101.5%" height="108.0%" filterUnits="objectBoundingBox" id="react-filter-7">
                        <feOffset dx="0" dy="2" in="SourceAlpha" result="shadowOffsetOuter1" />
                        <feColorMatrix values="0 0 0 0 0   0 0 0 0 0   0 0 0 0 0  0 0 0 0.16 0" type="matrix" in="shadowOffsetOuter1" result="shadowMatrixOuter1" />
                        <feMerge>
                            <feMergeNode in="shadowMatrixOuter1" />
                            <feMergeNode in="SourceGraphic" />
                        </feMerge>
                    </filter>
                </defs>
                <mask id="react-mask-8" fill="white">
                    <use xlink:href="#react-path-9" />
                </mask>
                <g id="Mask" />
                <g id="Top/No-Hair" mask="url(#react-mask-8)">
                    <g transform="translate(-1.000000, 0.000000)">
                        <g id="Top/_Resources/Prescription-02" fill="none" transform="translate(50.000000, 55.000000)" stroke-width="1">
                            <defs>
                                <filter x="-0.8%" y="-2.4%" width="101.5%" height="109.8%" filterUnits="objectBoundingBox" id="react-filter-18">
                                    <feOffset dx="0" dy="2" in="SourceAlpha" result="shadowOffsetOuter1" />
                                    <feColorMatrix values="0 0 0 0 0   0 0 0 0 0   0 0 0 0 0  0 0 0 0.2 0" type="matrix" in="shadowOffsetOuter1" result="shadowMatrixOuter1" />
                                    <feMerge>
                                        <feMergeNode in="shadowMatrixOuter1" />
                                        <feMergeNode in="SourceGraphic" />
                                    </feMerge>
                                </filter>
                            </defs>
                            <g id="Wayfarers" filter="url(#react-filter-18)" transform="translate(6.000000, 11.0000) scale(1 0.8)" fill="#353950">
                                <path d="M34,41 L31.2421498,41 C17.3147125,41 9,33.3359286 9,20.5 C9,10.127 10.8170058,0 32.5299306,0 L35.4700694,0 C57.1829942,0 59,10.127 59,20.5 C59,32.5686429 48.7212748,41 34,41 Z M32.3853606,6 C13,6 13,12.8410159 13,21.5015498 C13,28.5719428 16.116254,37 30.9709365,37 L34,37 C46.3649085,37 55,30.6270373 55,21.5015498 C55,12.8410159 55,6 35.6146394,6 L32.3853606,6 Z" id="Left" fill-rule="nonzero" />
                                <path d="M96,41 L93.2421498,41 C79.3147125,41 71,33.3359286 71,20.5 C71,10.127 72.8170058,0 94.5299306,0 L97.4700694,0 C119.182994,0 121,10.127 121,20.5 C121,32.5686429 110.721275,41 96,41 Z M94.3853606,6 C75,6 75,12.8410159 75,21.5015498 C75,28.5719428 78.1194833,37 92.9709365,37 L96,37 C108.364909,37 117,30.6270373 117,21.5015498 C117,12.8410159 117,6 97.6146394,6 L94.3853606,6 Z" id="Right" fill-rule="nonzero" />
                                <path d="M2.95454545,5.77156439 C3.64590909,5.09629136 11.2095455,0 32.5,0 C50.3513636,0 54.1302273,1.85267217 59.8502273,4.6518809 L60.2689233,4.85850899 C60.6666014,4.99901896 62.7002447,5.68982981 65.0790606,5.76579519 C67.2462948,5.67278567 69.1000195,5.08540191 69.641698,4.89719767 C76.1703915,1.7220864 82.5610971,0 97.5,0 C118.790455,0 126.354091,5.09629136 127.045455,5.77156439 C128.679318,5.77156439 130,7.06150904 130,8.65734659 L130,11.5431288 C130,13.1389663 128.679318,14.428911 127.045455,14.428911 C127.045455,14.428911 120.143997,14.428911 120.143997,17.3146932 C120.143997,20.2004754 118.181818,13.1389663 118.181818,11.5431288 L118.181818,8.73240251 C114.578575,7.35340151 108.128411,4.78617535 97.5,4.78617535 C85.6584651,4.78617535 79.7610984,6.88602813 74.7022935,8.97112368 L74.7588636,9.10752861 L74.7563667,11.0937608 L72.5391666,16.4436339 L69.8004908,15.3608351 C69.5558969,15.2641292 69.0281396,15.090392 68.2963505,14.9099044 C66.256272,14.4067419 64.1589087,14.253569 62.3040836,14.6343084 C61.6235903,14.7739931 60.9922286,14.9836085 60.4128127,15.266732 L57.7704824,16.5578701 L55.1266751,11.3962031 L55.2440909,9.10175705 L55.3248203,8.90683855 C50.9620526,6.87386374 46.9392639,4.78617535 32.5,4.78617535 C21.8721459,4.78617535 15.422131,7.3524397 11.8181818,8.7314671 L11.8181818,11.5431288 C11.8181818,13.1389663 8.86363636,20.2004754 8.86363636,17.3146932 C8.86363636,14.428911 2.95454545,14.428911 2.95454545,14.428911 C1.32363636,14.428911 0,13.1389663 0,11.5431288 L0,8.65734659 C0,7.06150904 1.32363636,5.77156439 2.95454545,5.77156439 Z" id="Stuff" fill-rule="nonzero" />
                            </g>
                        </g>
                    </g>
                </g>
            </g>
        </g>
    </g>
</svg>