<?xml version="1.0" encoding="UTF-8" standalone="no"?>
<svg
   xmlns:dc="http://purl.org/dc/elements/1.1/"
   xmlns:cc="http://creativecommons.org/ns#"
   xmlns:rdf="http://www.w3.org/1999/02/22-rdf-syntax-ns#"
   xmlns:svg="http://www.w3.org/2000/svg"
   xmlns="http://www.w3.org/2000/svg"
   xmlns:sodipodi="http://sodipodi.sourceforge.net/DTD/sodipodi-0.dtd"
   xmlns:inkscape="http://www.inkscape.org/namespaces/inkscape"
   width="11.25pt"
   height="11.25pt"
   viewBox="0 0 11.25 11.25"
   version="1.1"
   id="svg840"
   sodipodi:docname="Veggie.svg"
   inkscape:version="1.0beta2 (2b71d25, 2019-12-03)">
  <metadata
     id="metadata846">
    <rdf:RDF>
      <cc:Work
         rdf:about="">
        <dc:format>image/svg+xml</dc:format>
        <dc:type
           rdf:resource="http://purl.org/dc/dcmitype/StillImage" />
      </cc:Work>
    </rdf:RDF>
  </metadata>
  <defs
     id="defs844" />
  <sodipodi:namedview
     pagecolor="#ffffff"
     bordercolor="#666666"
     inkscape:document-rotation="0"
     borderopacity="1"
     objecttolerance="10"
     gridtolerance="10"
     guidetolerance="10"
     inkscape:pageopacity="0"
     inkscape:pageshadow="2"
     inkscape:window-width="1920"
     inkscape:window-height="1035"
     id="namedview842"
     showgrid="false"
     inkscape:zoom="31.171875"
     inkscape:cx="10.666667"
     inkscape:cy="10.666667"
     inkscape:window-x="0"
     inkscape:window-y="23"
     inkscape:window-maximized="1"
     inkscape:current-layer="surface1" />
  <g
     id="surface1"
     transform="scale(0.70295339,0.703125)">
    <path
       style="fill:#F4BA49;fill-opacity:1;fill-rule:nonzero;stroke:none"
       d="m 8,16 c 4.417969,0 8.003906,-3.582031 8.003906,-8 C 16.003906,3.582031 12.417969,0 8,0 3.585938,0 0,3.582031 0,8 c 0,4.417969 3.585938,8 8,8"
       id="path833"
       inkscape:connector-curvature="0" />
    <path
       style="fill:#ffffff;fill-opacity:1;fill-rule:nonzero;stroke:#ffffff;stroke-width:1.1;stroke-opacity:1"
       d="M 11.926757,5.1246088 8.6138674,12.730078 c -0.1074216,0.232031 -0.3523443,0.378125 -0.6015625,0.378125 -0.262109,0 -0.4941409,-0.128906 -0.5972659,-0.378125 L 4.0892572,5.1246088 c -0.042968,-0.085936 -0.055859,-0.171875 -0.055859,-0.2621091 0,-0.34375 0.275,-0.6660159 0.6402341,-0.6660159 0.2492193,0 0.4984386,0.1375 0.6015636,0.378125 L 7.9994141,11.002734 10.758007,4.5746088 c 0.103125,-0.240625 0.335157,-0.378125 0.584375,-0.378125 0.365235,0 0.635939,0.2964852 0.635939,0.6488284 0,0.090235 -0.0086,0.1804693 -0.05157,0.2792966"
       id="path837"
       inkscape:connector-curvature="0" />
  </g>
</svg>
