<?xml version="1.0" encoding="UTF-8"?>
<svg xmlns="http://www.w3.org/2000/svg" xmlns:xlink="http://www.w3.org/1999/xlink" width="16pt" height="16pt" viewBox="0 0 16 16" version="1.1">
<g id="surface1">
<path style=" stroke:none;fill-rule:nonzero;fill:rgb(0%,57.647059%,49.803922%);fill-opacity:1;" d="M 8 16 C 12.417969 16 16.003906 12.417969 16.003906 8 C 16.003906 3.582031 12.417969 0 8 0 C 3.585938 0 0 3.582031 0 8 C 0 12.417969 3.585938 16 8 16 "/>
<path style=" stroke:none;fill-rule:nonzero;fill:rgb(100%,100%,100%);fill-opacity:1;" d="M 12.917969 3.140625 C 14.246094 4.464844 14.976562 6.230469 14.976562 8.105469 C 14.976562 9.980469 14.246094 11.746094 12.917969 13.070312 C 11.589844 14.398438 9.828125 15.128906 7.953125 15.128906 C 6.078125 15.128906 4.3125 14.398438 2.988281 13.070312 C 1.664062 11.746094 0.929688 9.980469 0.929688 8.105469 C 0.929688 6.230469 1.664062 4.464844 2.988281 3.140625 C 4.3125 1.8125 6.078125 1.085938 7.953125 1.085938 C 9.828125 1.085938 11.589844 1.8125 12.917969 3.140625 M 12.554688 12.707031 C 13.777344 11.476562 14.457031 9.84375 14.457031 8.105469 C 14.457031 6.367188 13.777344 4.734375 12.554688 3.507812 C 11.324219 2.277344 9.691406 1.601562 7.953125 1.601562 C 6.214844 1.601562 4.582031 2.277344 3.351562 3.507812 C 2.125 4.734375 1.449219 6.367188 1.449219 8.105469 C 1.449219 9.84375 2.125 11.476562 3.351562 12.707031 C 4.582031 13.933594 6.214844 14.609375 7.953125 14.609375 C 9.691406 14.609375 11.324219 13.933594 12.554688 12.707031 "/>
<path style=" stroke:none;fill-rule:nonzero;fill:rgb(100%,100%,100%);fill-opacity:1;" d="M 11.570312 5.445312 L 8.558594 12.359375 C 8.460938 12.570312 8.238281 12.703125 8.011719 12.703125 C 7.773438 12.703125 7.5625 12.585938 7.46875 12.359375 L 4.445312 5.445312 C 4.40625 5.367188 4.394531 5.289062 4.394531 5.207031 C 4.394531 4.894531 4.644531 4.601562 4.976562 4.601562 C 5.203125 4.601562 5.429688 4.726562 5.523438 4.945312 L 8 10.789062 L 10.507812 4.945312 C 10.601562 4.726562 10.8125 4.601562 11.039062 4.601562 C 11.371094 4.601562 11.617188 4.871094 11.617188 5.191406 C 11.617188 5.273438 11.609375 5.355469 11.570312 5.445312 "/>
</g>
</svg>
