<?xml version="1.0" encoding="UTF-8" standalone="no"?>
<svg
   xmlns:dc="http://purl.org/dc/elements/1.1/"
   xmlns:cc="http://creativecommons.org/ns#"
   xmlns:rdf="http://www.w3.org/1999/02/22-rdf-syntax-ns#"
   xmlns:svg="http://www.w3.org/2000/svg"
   xmlns="http://www.w3.org/2000/svg"
   xmlns:sodipodi="http://sodipodi.sourceforge.net/DTD/sodipodi-0.dtd"
   xmlns:inkscape="http://www.inkscape.org/namespaces/inkscape"
   inkscape:version="1.0beta2 (2b71d25, 2019-12-03)"
   sodipodi:docname="Veggie.svg"
   id="svg840"
   version="1.1"
   viewBox="0 0 11.25 11.25"
   height="11.25pt"
   width="11.25pt">
  <metadata
     id="metadata846">
    <rdf:RDF>
      <cc:Work
         rdf:about="">
        <dc:format>image/svg+xml</dc:format>
        <dc:type
           rdf:resource="http://purl.org/dc/dcmitype/StillImage" />
      </cc:Work>
    </rdf:RDF>
  </metadata>
  <defs
     id="defs844" />
  <sodipodi:namedview
     inkscape:current-layer="svg840"
     inkscape:window-maximized="1"
     inkscape:window-y="23"
     inkscape:window-x="0"
     inkscape:cy="10.666667"
     inkscape:cx="10.666667"
     inkscape:zoom="31.171875"
     showgrid="false"
     id="namedview842"
     inkscape:window-height="855"
     inkscape:window-width="1440"
     inkscape:pageshadow="2"
     inkscape:pageopacity="0"
     guidetolerance="10"
     gridtolerance="10"
     objecttolerance="10"
     borderopacity="1"
     inkscape:document-rotation="0"
     bordercolor="#666666"
     pagecolor="#ffffff" />
  <g
     transform="scale(0.70295339,0.703125)"
     id="surface1">
    <path
       inkscape:connector-curvature="0"
       id="path833"
       d="m 8,16 c 4.417969,0 8.003906,-3.582031 8.003906,-8 C 16.003906,3.582031 12.417969,0 8,0 3.585938,0 0,3.582031 0,8 c 0,4.417969 3.585938,8 8,8"
       style="fill:#00917d;fill-opacity:1;fill-rule:nonzero;stroke:none" />
    <path
       inkscape:connector-curvature="0"
       id="path835"
       d="m 12.917969,3.140625 c 1.328125,1.324219 2.058593,3.089844 2.058593,4.964844 0,1.875 -0.730468,3.640625 -2.058593,4.964843 -1.328125,1.328126 -3.089844,2.058594 -4.964844,2.058594 -1.875,0 -3.640625,-0.730468 -4.964844,-2.058594 C 1.664062,11.746094 0.929688,9.980469 0.929688,8.105469 c 0,-1.875 0.734374,-3.640625 2.058593,-4.964844 C 4.3125,1.8125 6.078125,1.085938 7.953125,1.085938 c 1.875,0 3.636719,0.726562 4.964844,2.054687 m -0.363281,9.566406 c 1.222656,-1.230469 1.902343,-2.863281 1.902343,-4.601562 0,-1.738281 -0.679687,-3.371094 -1.902343,-4.597657 -1.230469,-1.230468 -2.863282,-1.90625 -4.601563,-1.90625 -1.738281,0 -3.371094,0.675782 -4.601563,1.90625 C 2.125,4.734375 1.449219,6.367188 1.449219,8.105469 c 0,1.738281 0.675781,3.371093 1.902343,4.601562 1.230469,1.226563 2.863282,1.902344 4.601563,1.902344 1.738281,0 3.371094,-0.675781 4.601563,-1.902344"
       style="fill:#ffffff;fill-opacity:1;fill-rule:nonzero;stroke:none" />
    <path
       inkscape:connector-curvature="0"
       id="path837"
       d="m 11.570312,5.445312 -3.011718,6.914063 c -0.097656,0.210937 -0.320313,0.34375 -0.546875,0.34375 -0.238281,0 -0.449219,-0.117187 -0.542969,-0.34375 L 4.445312,5.445312 C 4.40625,5.367188 4.394531,5.289062 4.394531,5.207031 c 0,-0.3125 0.25,-0.605469 0.582031,-0.605469 0.226563,0 0.453126,0.125 0.546876,0.34375 L 8,10.789062 10.507812,4.945312 c 0.09375,-0.21875 0.304688,-0.34375 0.53125,-0.34375 0.332032,0 0.578126,0.269532 0.578126,0.589844 0,0.082032 -0.0078,0.164063 -0.04688,0.253906"
       style="fill:#ffffff;fill-opacity:1;fill-rule:nonzero;stroke:none" />
  </g>
</svg>
